<?xml version="1.0" ?><!DOCTYPE svg  PUBLIC '-//W3C//DTD SVG 1.1//EN'  'http://www.w3.org/Graphics/SVG/1.1/DTD/svg11.dtd'><svg enable-background="new 0 0 91 91" height="91px" id="Layer_1" version="1.1" viewBox="0 0 91 91" width="91px" xml:space="preserve" xmlns="http://www.w3.org/2000/svg" xmlns:xlink="http://www.w3.org/1999/xlink"><g><path fill="rgba(255,255,255,0.6)" d="M79.015,0.738C71.355,1.39,63.719,0.061,56.042,0.434c-5.068,0.248-5.077,6.643-1.182,7.956   c-0.57,5.082-0.461,10.37-0.6,15.33c-0.191,6.892-0.425,13.785-0.425,20.678c0.002,14.416,0.113,28.832,0.313,43.246   c0.023,1.688,1.499,3.435,3.307,3.304c6.68-0.486,13.36-0.664,20.058-0.5c1.868,0.047,3.165-1.547,3.289-3.287   c1.96-27.514,1.146-55.215,1.86-82.777C82.711,2.534,80.947,0.573,79.015,0.738z M60.712,84.14   c-0.194-13.247-0.324-26.493-0.353-39.742c-0.014-6.891-0.218-13.785-0.331-20.678c-0.084-4.995,0.113-10.297-0.362-15.408   c5.194-0.39,10.455,0.088,15.678-0.059c-0.14,25.185,0.71,50.431-0.899,75.575C69.861,83.775,65.285,83.877,60.712,84.14z"/><path fill="rgba(255,255,255,0.6)" d="M9.976,44.398c0.002,14.416,0.113,28.832,0.311,43.246c0.025,1.688,1.499,3.435,3.307,3.304   c6.682-0.486,13.36-0.664,20.058-0.5c1.868,0.047,3.165-1.547,3.29-3.287C38.9,59.646,38.087,31.945,38.8,4.383   c0.051-1.85-1.712-3.81-3.645-3.646C27.496,1.39,19.857,0.061,12.182,0.434c-5.07,0.248-5.079,6.643-1.183,7.956   c-0.569,5.082-0.462,10.37-0.601,15.33C10.208,30.611,9.974,37.505,9.976,44.398z M31.482,8.253   c-0.139,25.185,0.71,50.431-0.9,75.575c-4.581-0.053-9.156,0.049-13.729,0.312c-0.197-13.247-0.325-26.493-0.355-39.742   c-0.014-6.891-0.218-13.785-0.329-20.678c-0.083-4.995,0.111-10.297-0.364-15.408C21.001,7.921,26.259,8.399,31.482,8.253z"/></g></svg>