<?xml version="1.0" ?><svg viewBox="0 0 512 512" xmlns="http://www.w3.org/2000/svg"><title/><g data-name="1" id="_1"><path fill="rgba(255,255,255,0.6)" d="M179,388H103.35a49.27,49.27,0,0,1-49.22-49.21V237.21A49.27,49.27,0,0,1,103.35,188H179a15,15,0,0,1,15,15V373A15,15,0,0,1,179,388ZM103.35,218a19.24,19.24,0,0,0-19.22,19.21V338.79A19.24,19.24,0,0,0,103.35,358H164V218Z"/><path fill="rgba(255,255,255,0.6)" d="M295,452.92H245.62A81.71,81.71,0,0,1,164,371.3V204.7a81.71,81.71,0,0,1,81.62-81.62H295a15,15,0,0,1,15,15V437.92A15,15,0,0,1,295,452.92ZM245.62,153.08A51.68,51.68,0,0,0,194,204.7V371.3a51.68,51.68,0,0,0,51.62,51.62H280V153.08Z"/><path fill="rgba(255,255,255,0.6)" d="M358.57,351.57A15,15,0,0,1,348,326,53.73,53.73,0,0,0,348,250a15,15,0,0,1,21.22-21.22,83.79,83.79,0,0,1,0,118.36A15,15,0,0,1,358.57,351.57Z"/><path fill="rgba(255,255,255,0.6)" d="M404.5,397.5a15,15,0,0,1-10.61-25.61,118.77,118.77,0,0,0,0-167.78,15,15,0,0,1,21.22-21.22c57.95,58,57.95,152.26,0,210.22A15,15,0,0,1,404.5,397.5Z"/></g></svg>